<svg viewBox="-16 0 512 512" xmlns="http://www.w3.org/2000/svg"><path d="m164.375 411.121094h30v85.878906h-30zm0 0" fill="#7e8596"/><path d="m179.375 411.121094h15v85.878906h-15zm0 0" fill="#707789"/><path d="m200.8125 419.964844 24.203125-17.722656 62.886719 85.875-24.203125 17.722656zm0 0" fill="#707789"/><path d="m70.832031 488.160156 62.882813-85.875 24.203125 17.722656-62.882813 85.875zm0 0" fill="#7e8596"/><path d="m288.734375 426.664062h-218.71875v-74.121093h218.71875zm0 0" fill="#555a66"/><path d="m288.730469 426.664062h-109.355469v-74.121093h109.355469zm0 0" fill="#414952"/><path d="m306.101562 193.445312v149.734376l129.800782 17.28125v-184.296876zm0 0" fill="#5b8a1d"/><path d="m306.101562 266.585938v76.59375l129.800782 17.28125v-93.875zm0 0" fill="#4a7017"/><path d="m325.234375 373.667969h-291.722656v-209.835938h291.722656zm0 0" fill="#86c42b"/><path d="m325.234375 373.667969h-291.722656v-107.082031h291.722656zm0 0" fill="#78b22a"/><path d="m325.234375 373.667969h-145.863281v-209.835938h145.863281zm0 0" fill="#78b22a"/><path d="m325.234375 373.667969h-145.863281v-107.082031h145.863281zm0 0" fill="#679c20"/><path d="m480.25 369.339844h-53.699219v-205.507813h53.699219zm0 0" fill="#86c42b"/><path d="m480.25 369.339844h-53.699219v-102.753906h53.699219zm0 0" fill="#78b22a"/><path d="m145.832031 482h67.082031v30h-67.082031zm0 0" fill="#555a66"/><path d="m179.375 482h33.539062v30h-33.539062zm0 0" fill="#414952"/><path d="m233.671875 482h67.085937v30h-67.085937zm0 0" fill="#414952"/><path d="m57.992188 482h67.082031v30h-67.082031zm0 0" fill="#555a66"/><path d="m358.746094 89.6875c0 49.53125-40.152344 89.6875-89.683594 89.6875-49.535156 0-89.6875-40.15625-89.6875-89.6875 0-49.535156 40.152344-89.6875 89.6875-89.6875 49.53125 0 89.683594 40.152344 89.683594 89.6875zm0 0" fill="#555a66"/><path d="m269.0625 179.375c49.53125 0 89.683594-40.15625 89.683594-89.6875 0-49.535156-40.152344-89.6875-89.683594-89.6875zm0 0" fill="#414952"/><path d="m269.0625 113.898438c-13.351562 0-24.214844-10.859376-24.214844-24.210938s10.863282-24.210938 24.214844-24.210938c13.347656 0 24.210938 10.859376 24.210938 24.210938 0 13.347656-10.863282 24.210938-24.210938 24.210938zm0 0" fill="#7e8596"/><path d="m269.0625 113.898438c0-29.179688 0-29.179688 0-48.421876 13.347656 0 24.210938 10.859376 24.210938 24.210938 0 13.347656-10.863282 24.210938-24.210938 24.210938zm0 0" fill="#707789"/><path d="m179.375 89.6875c0 49.53125-40.15625 89.6875-89.6875 89.6875-49.535156 0-89.6875-40.15625-89.6875-89.6875 0-49.535156 40.152344-89.6875 89.6875-89.6875 49.53125 0 89.6875 40.152344 89.6875 89.6875zm0 0" fill="#555a66"/><path d="m89.6875 179.375c49.53125 0 89.6875-40.15625 89.6875-89.6875 0-49.535156-40.15625-89.6875-89.6875-89.6875zm0 0" fill="#414952"/><path d="m89.6875 113.898438c-13.351562 0-24.210938-10.859376-24.210938-24.210938s10.859376-24.210938 24.210938-24.210938 24.210938 10.859376 24.210938 24.210938c0 13.347656-10.863282 24.210938-24.210938 24.210938zm0 0" fill="#7e8596"/><path d="m89.6875 113.898438c0-29.179688 0-29.179688 0-48.421876 13.347656 0 24.210938 10.859376 24.210938 24.210938 0 13.347656-10.863282 24.210938-24.210938 24.210938zm0 0" fill="#707789"/></svg>